<svg width="24" height="24" viewBox="0 0 24 24" fill="none" xmlns="http://www.w3.org/2000/svg">
    <path d="M12 21.75C13.1 21.75 14 20.85 14 19.75H9.99997C9.99997 20.85 10.9 21.75 12 21.75ZM18 15.75V10.75C18 7.68 16.37 5.11 13.5 4.43V3.75C13.5 2.92 12.83 2.25 12 2.25C11.17 2.25 10.5 2.92 10.5 3.75V4.43C7.63997 5.11 5.99997 7.67 5.99997 10.75V15.75L3.99997 17.75V18.75H20V17.75L18 15.75ZM16 16.75H7.99997V10.75C7.99997 8.27 9.50997 6.25 12 6.25C14.49 6.25 16 8.27 16 10.75V16.75Z" fill="#FFAA66"/>
</svg>
