<svg width="25" height="24" viewBox="0 0 25 24" fill="none" xmlns="http://www.w3.org/2000/svg">
    <path d="M10.3906 2.25L10.2734 2.85938L9.82812 5.08594C9.11328 5.36719 8.46875 5.7627 7.88281 6.23438L5.70312 5.48438L5.11719 5.29688L4.8125 5.83594L3.3125 8.41406L3.00781 8.95312L3.45312 9.35156L5.14062 10.8281C5.0791 11.2119 5 11.5957 5 12C5 12.4043 5.0791 12.7881 5.14062 13.1719L3.45312 14.6484L3.00781 15.0469L3.3125 15.5859L4.8125 18.1641L5.11719 18.7031L5.70312 18.5156L7.88281 17.7656C8.46875 18.2373 9.11328 18.6328 9.82812 18.9141L10.2734 21.1406L10.3906 21.75H14.6094L14.7266 21.1406L15.1719 18.9141C15.8867 18.6328 16.5312 18.2373 17.1172 17.7656L19.2969 18.5156L19.8828 18.7031L20.1875 18.1641L21.6875 15.5859L21.9922 15.0469L21.5469 14.6484L19.8594 13.1719C19.9209 12.7881 20 12.4043 20 12C20 11.5957 19.9209 11.2119 19.8594 10.8281L21.5469 9.35156L21.9922 8.95312L21.6875 8.41406L20.1875 5.83594L19.8828 5.29688L19.2969 5.48438L17.1172 6.23438C16.5312 5.7627 15.8867 5.36719 15.1719 5.08594L14.7266 2.85938L14.6094 2.25H10.3906ZM11.6094 3.75H13.3906L13.7656 5.69531L13.8594 6.14062L14.2812 6.28125C15.1338 6.54785 15.9072 6.99902 16.5547 7.59375L16.8828 7.89844L17.3047 7.75781L19.2031 7.10156L20.0938 8.625L18.5938 9.96094L18.2422 10.2422L18.3594 10.6875C18.4561 11.1152 18.5 11.5518 18.5 12C18.5 12.4482 18.4561 12.8848 18.3594 13.3125L18.2656 13.7578L18.5938 14.0391L20.0938 15.375L19.2031 16.8984L17.3047 16.2422L16.8828 16.1016L16.5547 16.4062C15.9072 17.001 15.1338 17.4521 14.2812 17.7188L13.8594 17.8594L13.7656 18.3047L13.3906 20.25H11.6094L11.2344 18.3047L11.1406 17.8594L10.7188 17.7188C9.86621 17.4521 9.09277 17.001 8.44531 16.4062L8.11719 16.1016L7.69531 16.2422L5.79688 16.8984L4.90625 15.375L6.40625 14.0391L6.75781 13.7578L6.64062 13.3125C6.54395 12.8848 6.5 12.4482 6.5 12C6.5 11.5518 6.54395 11.1152 6.64062 10.6875L6.75781 10.2422L6.40625 9.96094L4.90625 8.625L5.79688 7.10156L7.69531 7.75781L8.11719 7.89844L8.44531 7.59375C9.09277 6.99902 9.86621 6.54785 10.7188 6.28125L11.1406 6.14062L11.2344 5.69531L11.6094 3.75ZM12.5 8.25C10.4375 8.25 8.75 9.9375 8.75 12C8.75 14.0625 10.4375 15.75 12.5 15.75C14.5625 15.75 16.25 14.0625 16.25 12C16.25 9.9375 14.5625 8.25 12.5 8.25ZM12.5 9.75C13.751 9.75 14.75 10.749 14.75 12C14.75 13.251 13.751 14.25 12.5 14.25C11.249 14.25 10.25 13.251 10.25 12C10.25 10.749 11.249 9.75 12.5 9.75Z" fill="#FFAA66"/>
</svg>
