<svg width="25" height="24" viewBox="0 0 25 24" fill="none" xmlns="http://www.w3.org/2000/svg">
    <path d="M16.9444 7.55553H21.3889C22.0026 7.55553 22.5 8.053 22.5 8.66664V20.8889L18.7967 17.8122C18.5972 17.6464 18.3453 17.5555 18.0859 17.5555H9.16667C8.55301 17.5555 8.05556 17.0581 8.05556 16.4444V13.1111M16.9444 7.55553V4.2222C16.9444 3.60855 16.447 3.11108 15.8333 3.11108H3.61111C2.99747 3.11108 2.5 3.60855 2.5 4.2222V16.4448L6.20334 13.3675C6.40283 13.2019 6.65471 13.1111 6.91407 13.1111H8.05556M16.9444 7.55553V12C16.9444 12.6136 16.447 13.1111 15.8333 13.1111H8.05556" stroke="#FFAA66" stroke-width="1.5" stroke-linecap="round" stroke-linejoin="round"/>
</svg>
