<svg width="25" height="25" viewBox="0 0 25 25" fill="none" xmlns="http://www.w3.org/2000/svg">
    <path d="M12.5 6.14585C13.7083 6.14585 14.6875 7.12502 14.6875 8.33335C14.6875 9.54169 13.7083 10.5209 12.5 10.5209C11.2916 10.5209 10.3125 9.54169 10.3125 8.33335C10.3125 7.12502 11.2916 6.14585 12.5 6.14585ZM12.5 15.5209C15.5937 15.5209 18.8541 17.0417 18.8541 17.7084V18.8542H6.14579V17.7084C6.14579 17.0417 9.40621 15.5209 12.5 15.5209ZM12.5 4.16669C10.1979 4.16669 8.33329 6.03127 8.33329 8.33335C8.33329 10.6354 10.1979 12.5 12.5 12.5C14.802 12.5 16.6666 10.6354 16.6666 8.33335C16.6666 6.03127 14.802 4.16669 12.5 4.16669ZM12.5 13.5417C9.71871 13.5417 4.16663 14.9375 4.16663 17.7084V20.8334H20.8333V17.7084C20.8333 14.9375 15.2812 13.5417 12.5 13.5417Z" fill="#FFAA66"/>
</svg>
