<svg width="24" height="24" viewBox="0 0 24 24" fill="none" xmlns="http://www.w3.org/2000/svg">
    <path d="M15.755 14.255H14.965L14.685 13.985C15.665 12.845 16.255 11.365 16.255 9.75501C16.255 6.16501 13.345 3.255 9.75501 3.255C6.16501 3.255 3.255 6.16501 3.255 9.75501C3.255 13.345 6.16501 16.255 9.75501 16.255C11.365 16.255 12.845 15.665 13.985 14.685L14.255 14.965V15.755L19.255 20.745L20.745 19.255L15.755 14.255ZM9.75501 14.255C7.26501 14.255 5.25501 12.245 5.25501 9.75501C5.25501 7.26501 7.26501 5.25501 9.75501 5.25501C12.245 5.25501 14.255 7.26501 14.255 9.75501C14.255 12.245 12.245 14.255 9.75501 14.255Z" fill="#FFAA66"/>
</svg>
