<svg width="56" height="56" viewBox="0 0 56 56" fill="none" xmlns="http://www.w3.org/2000/svg">
    <circle cx="28" cy="28" r="28" fill="#BCC1C5"/>
    <path d="M34.7499 29.4999C32.9499 29.4999 30.1449 30.0099 27.9999 30.9999C25.8549 29.9949 23.0499 29.4999 21.2499 29.4999C17.9949 29.4999 11.4999 31.1199 11.4999 34.3749V38.4999H44.4999V34.3749C44.4999 31.1199 38.0049 29.4999 34.7499 29.4999ZM28.7499 36.2499H13.7499V34.3749C13.7499 33.5649 17.5899 31.7499 21.2499 31.7499C24.9099 31.7499 28.7499 33.5649 28.7499 34.3749V36.2499ZM42.2499 36.2499H30.9999V34.3749C30.9999 33.6849 30.6999 33.0849 30.2199 32.5449C31.5399 32.0949 33.1599 31.7499 34.7499 31.7499C38.4099 31.7499 42.2499 33.5649 42.2499 34.3749V36.2499ZM21.2499 27.9999C24.1449 27.9999 26.4999 25.6449 26.4999 22.7499C26.4999 19.8549 24.1449 17.4999 21.2499 17.4999C18.3549 17.4999 15.9999 19.8549 15.9999 22.7499C15.9999 25.6449 18.3549 27.9999 21.2499 27.9999ZM21.2499 19.7499C22.8999 19.7499 24.2499 21.0999 24.2499 22.7499C24.2499 24.3999 22.8999 25.7499 21.2499 25.7499C19.5999 25.7499 18.2499 24.3999 18.2499 22.7499C18.2499 21.0999 19.5999 19.7499 21.2499 19.7499ZM34.7499 27.9999C37.6449 27.9999 39.9999 25.6449 39.9999 22.7499C39.9999 19.8549 37.6449 17.4999 34.7499 17.4999C31.8549 17.4999 29.4999 19.8549 29.4999 22.7499C29.4999 25.6449 31.8549 27.9999 34.7499 27.9999ZM34.7499 19.7499C36.3999 19.7499 37.7499 21.0999 37.7499 22.7499C37.7499 24.3999 36.3999 25.7499 34.7499 25.7499C33.0999 25.7499 31.7499 24.3999 31.7499 22.7499C31.7499 21.0999 33.0999 19.7499 34.7499 19.7499Z" fill="#636D78"/>
</svg>
