<svg width="56" height="56" viewBox="0 0 56 56" fill="none" xmlns="http://www.w3.org/2000/svg">
    <circle cx="28" cy="28" r="28" fill="#BCC1C5"/>
    <path d="M27.9999 18.85C29.7399 18.85 31.1499 20.26 31.1499 22C31.1499 23.74 29.7399 25.15 27.9999 25.15C26.2599 25.15 24.8499 23.74 24.8499 22C24.8499 20.26 26.2599 18.85 27.9999 18.85ZM27.9999 32.35C32.4549 32.35 37.1499 34.54 37.1499 35.5V37.15H18.8499V35.5C18.8499 34.54 23.5449 32.35 27.9999 32.35ZM27.9999 16C24.6849 16 21.9999 18.685 21.9999 22C21.9999 25.315 24.6849 28 27.9999 28C31.3149 28 33.9999 25.315 33.9999 22C33.9999 18.685 31.3149 16 27.9999 16ZM27.9999 29.5C23.9949 29.5 15.9999 31.51 15.9999 35.5V40H39.9999V35.5C39.9999 31.51 32.0049 29.5 27.9999 29.5Z" fill="#636D78"/>
</svg>
