<svg width="36" height="32" viewBox="0 0 36 32" fill="none" xmlns="http://www.w3.org/2000/svg">
    <path d="M27.436 4.66894C27.2765 4.39294 27.3563 4.04641 27.6139 3.89614L29.3251 2.91174L29.9261 3.90841L28.1904 4.90201C27.9359 5.05228 27.5955 4.94494 27.436 4.66894Z" fill="#F68621"/>
    <path d="M34.1029 2.19415H32.4745V2.79215H34.1029V2.19415Z" fill="#F68621"/>
    <path d="M30.7449 3.35331C30.2696 3.35331 29.8832 2.96691 29.8832 2.49158C29.8832 2.01624 30.2696 1.62984 30.7449 1.62984C31.2203 1.62984 31.6067 2.01624 31.6067 2.49158C31.6067 2.96691 31.2203 3.35331 30.7449 3.35331ZM30.7449 0.734375C29.7728 0.734375 28.9847 1.52251 28.9847 2.49464C28.9847 3.46678 29.7728 4.25491 30.7449 4.25491C31.7171 4.25491 32.5052 3.46678 32.5052 2.49464C32.5052 1.52251 31.7171 0.734375 30.7449 0.734375Z" fill="#F68621"/>
    <path d="M34.7991 3.06508C34.4832 3.06508 34.2287 2.81055 34.2287 2.49468C34.2287 2.17881 34.4832 1.92428 34.7991 1.92428C35.1149 1.92428 35.3695 2.17881 35.3695 2.49468C35.3695 2.81055 35.1149 3.06508 34.7991 3.06508ZM34.7991 1.32935C34.1551 1.32935 33.6368 1.85068 33.6368 2.49161C33.6368 3.13255 34.1581 3.65388 34.7991 3.65388C35.44 3.65388 35.9613 3.13255 35.9613 2.49161C35.9613 1.85068 35.4431 1.32935 34.7991 1.32935Z" fill="#F68621"/>
    <path d="M24.2497 30.7938C23.5965 30.7938 23.066 30.2633 23.066 29.6101C23.066 28.9569 23.5965 28.4264 24.2497 28.4264C24.9029 28.4264 25.4335 28.9569 25.4335 29.6101C25.4335 30.2633 24.9029 30.7938 24.2497 30.7938ZM22.238 28.411H10.922L5.30693 19.0485C5.4848 18.7173 5.586 18.3401 5.586 17.9414C5.586 17.5428 5.48787 17.1686 5.31 16.8436L10.922 7.48718H22.238C22.6459 8.16798 23.3911 8.62184 24.2405 8.62184C24.2405 8.62184 26.1071 11.7314 29.8403 17.9506L24.2344 27.2825C23.3849 27.2825 22.6459 27.7333 22.238 28.411ZM24.2405 5.12278C24.8845 5.12278 25.4089 5.64718 25.4089 6.29118C25.4089 6.71438 25.182 7.08851 24.8416 7.29091C24.6668 7.39518 24.4613 7.45651 24.2436 7.45651C23.5996 7.45651 23.0752 6.93211 23.0752 6.28811C23.0752 5.64411 23.5965 5.11971 24.2436 5.11971L24.2405 5.12278ZM3.25533 19.1344C2.60213 19.1344 2.0716 18.6038 2.0716 17.9506C2.0716 17.2974 2.60213 16.7669 3.25533 16.7669C3.90853 16.7669 4.43907 17.2974 4.43907 17.9506C4.43907 18.6038 3.90853 19.1344 3.25533 19.1344ZM25.4365 27.6168L31.2356 17.9537L25.4396 8.29371C26.1204 7.88584 26.5712 7.14371 26.5712 6.29424C26.5712 5.00624 25.5285 3.96051 24.2375 3.96051C22.9464 3.96051 21.9037 5.00318 21.9037 6.29424C21.9037 6.29424 18.0172 6.29424 10.2443 6.29424L4.4544 15.9481C4.10173 15.7365 3.6908 15.6138 3.2492 15.6138C1.9612 15.6138 0.915466 16.6565 0.915466 17.9476C0.915466 19.2386 1.95813 20.2813 3.2492 20.2813C3.68467 20.2813 4.0956 20.1617 4.44827 19.9501L10.2473 29.6132H21.9037C21.9037 30.9012 22.9464 31.9438 24.2344 31.9438C25.5224 31.9438 26.5651 30.9012 26.5651 29.6132C26.562 28.7637 26.1112 28.0216 25.4335 27.6137L25.4365 27.6168Z" fill="#F68621"/>
    <path d="M17.224 13.2955C16.6076 13.2955 16.0188 13.4151 15.4791 13.6328C17.1903 14.3228 18.4016 16.0003 18.4016 17.9599C18.4016 19.9195 17.1933 21.597 15.4791 22.287C16.0188 22.5047 16.6076 22.6243 17.224 22.6243C19.8 22.6243 21.8915 20.5359 21.8915 17.9568C21.8915 15.3778 19.8031 13.2924 17.224 13.2924V13.2955Z" fill="#F68621"/>
    <path d="M22.6367 20.2169L26.5528 17.9568L22.5293 15.6353C22.8636 16.3713 23.0507 17.1901 23.0507 18.0488C23.0507 18.8154 22.9004 19.5484 22.6336 20.2169H22.6367Z" fill="#F68621"/>
    <path d="M16.6628 12.2436L12.578 9.88531V14.5252C13.5348 13.2617 14.9976 12.403 16.6628 12.2436Z" fill="#F68621"/>
    <path d="M12.5749 21.5663V26.0222L16.396 23.8172C14.8412 23.5964 13.4827 22.7623 12.5749 21.5663Z" fill="#F68621"/>
    <path d="M21.8853 14.5773V9.89453L17.7791 12.2651C19.4565 12.4276 20.9285 13.3016 21.8853 14.5804V14.5773Z" fill="#F68621"/>
    <path d="M11.3881 18.0672C11.3881 17.2085 11.5752 16.3897 11.9095 15.6568L7.9136 17.966L11.7929 20.2047C11.5323 19.5423 11.3881 18.8216 11.3881 18.0672Z" fill="#F68621"/>
    <path d="M18.0765 23.8325L21.8853 26.0313V21.554C20.9868 22.7561 19.6313 23.5995 18.0765 23.8325Z" fill="#F68621"/>
</svg>
