<svg width="32" height="32" viewBox="0 0 32 32" fill="none" xmlns="http://www.w3.org/2000/svg">
    <rect width="32" height="32" rx="4" fill="#FFF3E8"/>
    <path d="M15 19.0001H17V21.0001H15V19.0001ZM15 11.0001H17V17.0001H15V11.0001ZM15.99 6.00006C10.47 6.00006 6 10.4801 6 16.0001C6 21.5201 10.47 26.0001 15.99 26.0001C21.52 26.0001 26 21.5201 26 16.0001C26 10.4801 21.52 6.00006 15.99 6.00006ZM16 24.0001C11.58 24.0001 8 20.4201 8 16.0001C8 11.5801 11.58 8.00006 16 8.00006C20.42 8.00006 24 11.5801 24 16.0001C24 20.4201 20.42 24.0001 16 24.0001Z" fill="#FFAA66"/>
</svg>
