<svg width="16" height="16" viewBox="0 0 16 16" fill="none" xmlns="http://www.w3.org/2000/svg">
    <path d="M12.9999 12.2933L3.17992 2.16L2.33325 3.00667L4.19992 4.87333V4.88C3.85325 5.54 3.66659 6.32 3.66659 7.16V10.4933L2.33325 11.8267V12.4933H11.4866L12.8199 13.8267L13.6666 12.98L12.9999 12.2933ZM7.66658 14.5C8.40658 14.5 8.99992 13.9067 8.99992 13.1667H6.33325C6.33325 13.9067 6.92659 14.5 7.66658 14.5ZM11.6666 9.62V7.16667C11.6666 5.11333 10.5733 3.40667 8.66658 2.95333V2.5C8.66658 1.94667 8.21992 1.5 7.66658 1.5C7.11325 1.5 6.66658 1.94667 6.66658 2.5V2.95333C6.56659 2.97333 6.47325 3.00667 6.38658 3.03333C6.31992 3.05333 6.25325 3.08 6.18658 3.10667H6.17992C6.17325 3.10667 6.17325 3.10667 6.16658 3.11333C6.01325 3.17333 5.85992 3.24667 5.71325 3.32C5.71325 3.32 5.70659 3.32 5.70659 3.32667L11.6666 9.62Z" fill="#BCC1C5"/>
</svg>
