<svg width="40" height="40" viewBox="0 0 40 40" fill="none" xmlns="http://www.w3.org/2000/svg">
    <circle cx="20" cy="20" r="20" fill="#FFF3E8"/>
    <path d="M24.5 21C23.3 21 21.43 21.34 20 22C18.57 21.33 16.7 21 15.5 21C13.33 21 9 22.08 9 24.25V27H31V24.25C31 22.08 26.67 21 24.5 21ZM20.5 25.5H10.5V24.25C10.5 23.71 13.06 22.5 15.5 22.5C17.94 22.5 20.5 23.71 20.5 24.25V25.5ZM29.5 25.5H22V24.25C22 23.79 21.8 23.39 21.48 23.03C22.36 22.73 23.44 22.5 24.5 22.5C26.94 22.5 29.5 23.71 29.5 24.25V25.5ZM15.5 20C17.43 20 19 18.43 19 16.5C19 14.57 17.43 13 15.5 13C13.57 13 12 14.57 12 16.5C12 18.43 13.57 20 15.5 20ZM15.5 14.5C16.6 14.5 17.5 15.4 17.5 16.5C17.5 17.6 16.6 18.5 15.5 18.5C14.4 18.5 13.5 17.6 13.5 16.5C13.5 15.4 14.4 14.5 15.5 14.5ZM24.5 20C26.43 20 28 18.43 28 16.5C28 14.57 26.43 13 24.5 13C22.57 13 21 14.57 21 16.5C21 18.43 22.57 20 24.5 20ZM24.5 14.5C25.6 14.5 26.5 15.4 26.5 16.5C26.5 17.6 25.6 18.5 24.5 18.5C23.4 18.5 22.5 17.6 22.5 16.5C22.5 15.4 23.4 14.5 24.5 14.5Z" fill="#FFAA66"/>
</svg>
