<svg width="24" height="24" viewBox="0 0 24 24" fill="none" xmlns="http://www.w3.org/2000/svg">
    <g clip-path="url(#clip0_103_21128)">
        <path fill-rule="evenodd" clip-rule="evenodd" d="M22.6667 19.4649C15.6947 21.0503 8.31066 21.0503 1.33334 19.4649V5.85561C8.30534 4.27027 15.6893 4.26895 22.6667 5.85561V19.4649ZM23.488 4.67826C15.984 2.8836 8.008 2.88493 0.512 4.67826L0 4.80095V20.5196L0.512 20.6423C4.26266 21.5396 8.128 21.9929 12 21.9929C15.8733 21.9929 19.74 21.5396 23.488 20.6423L24 20.5196V4.80095L23.488 4.67826ZM10.6667 9.83735L15.3707 12.66L10.6667 15.4827V9.83735ZM9.33334 17.8373L17.9627 12.66L9.33334 7.48267V17.8373Z" fill="#FFAA66"/>
    </g>
    <defs>
        <clipPath id="clip0_103_21128">
            <rect width="24" height="24" fill="white"/>
        </clipPath>
    </defs>
</svg>
