<svg width="24" height="24" viewBox="0 0 24 24" fill="none" xmlns="http://www.w3.org/2000/svg">
    <path d="M19.0711 10.5859L10.9394 18.7176C9.37666 20.2803 6.84522 20.2803 5.28251 18.7176C3.7198 17.1549 3.71981 14.6234 5.28251 13.0607L14.1213 4.2219C15.0972 3.24609 16.6811 3.24609 17.6569 4.2219C18.6327 5.19771 18.6327 6.78162 17.6569 7.75743L10.2323 15.1821C9.84335 15.571 9.20695 15.571 8.81804 15.1821C8.42914 14.7931 8.42914 14.1567 8.81805 13.7678L15.5356 7.05032L14.4749 5.98967L7.75738 12.7072C6.78158 13.683 6.78158 15.2669 7.75738 16.2427C8.73319 17.2185 10.3171 17.2185 11.2929 16.2427L18.7175 8.81809C20.2802 7.25539 20.2802 4.72394 18.7175 3.16124C17.1548 1.59853 14.6234 1.59853 13.0607 3.16124L4.22185 12.0001C2.07225 14.1497 2.07225 17.6286 4.22185 19.7782C6.37145 21.9279 9.85042 21.9279 12 19.7782L20.1318 11.6465L19.0711 10.5859Z" fill="#202F3E"/>
</svg>
